<?xml version="1.0" encoding="UTF-8" standalone="no"?><svg xmlns="http://www.w3.org/2000/svg" fill="#000000" height="486.94pt" version="1.1" viewBox="0 0 447.6 486.94" width="447.6pt">
 <g id="surface1">
  <g id="change1_1"><path d="m0 55.055h60.918v-8.653h-60.918z" fill="#e9e9e9"/></g>
  <g id="change1_2"><path d="m386.69 55.055h60.91v-8.653h-60.91z" fill="#e9e9e9"/></g>
  <g id="change1_3"><path d="m0 440.73h60.918v-8.65h-60.918z" fill="#e9e9e9"/></g>
  <g id="change1_4"><path d="m386.69 440.73h60.91v-8.65h-60.91z" fill="#e9e9e9"/></g>
  <g id="change2_1"><path d="m50.609 401.43h352.24v-315.51l-352.24-0.002z" fill="#ffffff"/></g>
  <g id="change2_2"><path d="m0 429.55h60.918v-371.74l-60.918-0.005z" fill="#ffffff"/></g>
  <g id="change2_3"><path d="m386.68 429.55h60.92v-371.74l-60.92-0.005z" fill="#ffffff"/></g>
  <g id="change3_1"><path d="m60.918 429.55h-60.918v-371.74l60.918-0.005v371.74" fill="#28456b"/></g>
  <g id="change3_2"><path d="m386.68 429.55h60.92v-371.74l-60.92-0.005z" fill="#28456b"/></g>
  <g id="change4_1"><path d="m26.133 46.402h8.652v-21.34h-8.652z" fill="#28456b"/></g>
  <g id="change4_2"><path d="m30.457 0.0039062c7.898 0 14.297 6.3984 14.297 14.297 0 7.894-6.399 14.297-14.297 14.297-7.895 0-14.297-6.403-14.297-14.297 0-7.8987 6.402-14.297 14.297-14.297" fill="#28456b"/></g>
  <g id="change4_3"><path d="m412.82 46.402h8.65v-21.34h-8.65z" fill="#28456b"/></g>
  <g id="change4_4"><path d="m417.14 0.0039062c7.9 0 14.3 6.3984 14.3 14.297 0 7.894-6.4 14.297-14.3 14.297-7.89 0-14.29-6.403-14.29-14.297 0-7.8987 6.4-14.297 14.29-14.297" fill="#28456b"/></g>
  <g id="change4_5"><path d="m26.133 461.88h8.652v-21.34h-8.652z" fill="#28456b"/></g>
  <g id="change4_6"><path d="m30.457 458.35c7.898 0 14.297 6.4 14.297 14.29 0 7.9-6.399 14.3-14.297 14.3-7.895 0-14.297-6.4-14.297-14.3 0-7.89 6.402-14.29 14.297-14.29" fill="#28456b"/></g>
  <g id="change4_7"><path d="m412.82 461.88h8.65v-21.34h-8.65z" fill="#28456b"/></g>
  <g id="change4_8"><path d="m417.14 458.35c7.9 0 14.3 6.4 14.3 14.29 0 7.9-6.4 14.3-14.3 14.3-7.89 0-14.29-6.4-14.29-14.3 0-7.89 6.4-14.29 14.29-14.29" fill="#28456b"/></g>
 </g>
</svg>