<?xml version="1.0" encoding="iso-8859-1"?>
<!-- Generator: Adobe Illustrator 19.0.0, SVG Export Plug-In . SVG Version: 6.00 Build 0)  -->
<svg version="1.1" id="Layer_1" xmlns="http://www.w3.org/2000/svg" xmlns:xlink="http://www.w3.org/1999/xlink" x="0px" y="0px"
	 viewBox="0 0 299.999 299.999" style="enable-background:new 0 0 299.999 299.999;" xml:space="preserve">
<g>
	<g>
		<g>
			<path d="M172.979,33.483V7.575c0-4.184-3.391-7.575-7.575-7.575h-30.809c-4.184,0-7.575,3.391-7.575,7.575v25.909
				C63.906,44.416,15.753,99.564,15.753,165.753c0,74.024,60.222,134.246,134.246,134.246s134.246-60.222,134.246-134.246
				C284.246,99.564,236.092,44.416,172.979,33.483z M142.17,15.15h15.659v16.587c-4.779-0.286-10.437-0.312-15.659,0V15.15z
				 M150,284.849c-65.67,0-119.096-53.426-119.096-119.096c0-60.946,46.02-111.337,105.134-118.273
				c9.389-1.095,18.646-1.082,27.923,0c59.114,6.935,105.134,57.327,105.134,118.273C269.096,231.423,215.669,284.849,150,284.849z"
				/>
			<path d="M150,68.609c-53.51,0-97.145,43.547-97.145,97.145c0,53.506,43.536,97.146,97.145,97.146
				c53.655,0,97.145-43.699,97.145-97.146C247.143,112.242,203.595,68.609,150,68.609z M213.058,218.099l-6.794-6.795
				c-2.959-2.958-7.756-2.959-10.713-0.001c-2.959,2.958-2.959,7.755-0.001,10.712l6.796,6.796
				c-12.386,10.299-27.841,17.016-44.77,18.574v-9.639c0-4.184-3.391-7.575-7.575-7.575c-4.184,0-7.575,3.391-7.575,7.575v9.639
				c-16.93-1.558-32.385-8.275-44.77-18.574l6.795-6.796c2.958-2.958,2.958-7.755-0.001-10.712
				c-2.957-2.957-7.754-2.958-10.712,0.001l-6.794,6.795c-10.299-12.386-17.014-27.842-18.574-44.771h9.639
				c4.184,0,7.575-3.391,7.575-7.575c0-4.184-3.391-7.575-7.575-7.575h-9.639c1.558-16.93,8.274-32.385,18.573-44.77l6.795,6.795
				c2.958,2.958,7.754,2.959,10.712,0.001c2.959-2.958,2.959-7.755,0.001-10.712l-6.796-6.796
				c12.386-10.299,27.841-17.014,44.77-18.573v9.639c0,4.184,3.391,7.575,7.575,7.575s7.575-3.391,7.575-7.575v-9.639
				c16.93,1.558,32.386,8.274,44.77,18.573l-6.796,6.796c-2.958,2.958-2.958,7.755,0.001,10.712
				c2.957,2.957,7.753,2.958,10.713-0.001l6.794-6.795c10.299,12.385,17.014,27.841,18.573,44.77h-9.639
				c-4.184,0-7.575,3.391-7.575,7.575c0.001,4.184,3.392,7.575,7.576,7.575h9.639C230.072,190.258,223.357,205.714,213.058,218.099z
				"/>
			<path d="M169.664,133.085l-25.25,27.551c-2.827,3.085-2.618,7.876,0.467,10.703c1.453,1.332,3.288,1.991,5.116,1.991
				c2.049,0,4.093-0.826,5.586-2.457l25.25-27.551c2.827-3.085,2.618-7.876-0.467-10.703
				C177.284,129.792,172.492,130,169.664,133.085z"/>
		</g>
	</g>
</g>
<g>
</g>
<g>
</g>
<g>
</g>
<g>
</g>
<g>
</g>
<g>
</g>
<g>
</g>
<g>
</g>
<g>
</g>
<g>
</g>
<g>
</g>
<g>
</g>
<g>
</g>
<g>
</g>
<g>
</g>
</svg>
