<svg xmlns="http://www.w3.org/2000/svg" width="200" height="200" fill="none" preserveAspectRatio="none"><path fill="#000" fill-rule="evenodd" d="M2.52 105.58c.3-.56.48-12.83.21-14.64-.16-1.09-.14-1.6.05-1.94.15-.26.2-.67.1-.96a4.34 4.34 0 0 1-.1-1.32c.1-1.32.15-4.75.2-13.12.02-4.35.08-11.97.12-16.96.07-7.27-.06-26.55-.2-29.72-.05-1.33.02-2.43.17-2.53.2-.13.1-6.3-.13-7.4-.1-.47-.08-.87.02-.87.16 0 .19-4.5.14-10.05.2.02.44.03.68.01l.94-.06.02 3.74-.55.4c-.7.5-.7.79-.03 1.1.3.15.58.46.64.7.06.24.2.43.32.43.11 0 .17-3.2.17-6.4l.37-.03a3.3 3.3 0 0 0 1.44-.35c.3-.25.39-.25.5.04.33.76 1.16.82 9.9.64.52 0 3.68.03 7.04.09 3.53.06 6.24.02 6.42-.1.42-.27-1.02-1.22-1.77-1.15a2.27 2.27 0 0 1-1.01-.19c-.38-.18-.56-.14-.92.23-.46.48-.78.62-.54.24.28-.43-.15-.7-.55-.35-.26.23-.5.27-.72.14-.59-.35-2.3-.24-2.3.13 0 .23-.24.33-.8.34-.8 0-1.1-.29-.53-.5 1.02-.4-1.5-.73-2.83-.37-.81.23.03.52.89.3.55-.13.58-.1.3.22-.46.54-1.47.47-2.1-.16l-.55-.54-4.21.14c-2.87.1-4.37.23-4.7.42-.33.2-.52.22-.64.05-.1-.15-1.26-.41-2.63-.47 0-.35.32-1.23.31-1.57C8 3 8.72 3.75 9.91 3.76c4.37.04 8.67.25 10.58.3 1.9.05 12 .06 22.43.02 10.43-.04 19.04-.04 19.13.01.3.17 6.58.03 7.27-.16.4-.12.8-.11.95 0 .15.12 3.83.17 8.6.13l3.65-.02c2.61-.01 4.6.01 4.95.06.5.08 1.2.05 1.57-.07.5-.16.82-.13 1.3.14.84.46 2.67.46 2.85 0 .17-.43.99-.42 1.26.04.37.61 8.34 1.19 14.92 1.07 5.72-.1 9.6-.32 9.89-.55.26-.21.42-.18.79.16.65.6 1.96.73 6.04.55 1.96-.09 3.67-.15 3.8-.14 1.89.15 13.48.05 13.48-.11 0-.38-1.6-1.15-2.06-1-.25.07-.51.03-.6-.1-.22-.33-1.04-.26-1.19.12-.17.42-.54.43-.54 0 0-.42-.44-.41-.61.02-.12.3-.2.3-.68 0-.8-.49-2.1-.42-2.28.12-.1.33-.35.44-.94.45-.82 0-1.06-.28-.43-.52.2-.07.3-.23.21-.35-.18-.28-2.89-.26-3.34.03-.25.15-.07.21.7.21.95 0 1 .03.58.33-.63.46-1.05.4-1.75-.22-.8-.72-8.68-.79-9.49-.09-.39.34-.44.34-.73-.02-.26-.34-.55-.38-2.13-.26-1 .07-2.25.03-2.76-.1-.77-.17-1.05-.15-1.46.13-.46.3-.58.3-1.21.02-.52-.24-1.62-.33-4.2-.34-6.4-.03-6.86-.05-6.72-.28.18-.27.07-.27-.67 0-.35.13-.63.13-.71.01-.07-.1-1.62-.18-3.45-.15-1.82.02-3.4 0-3.5-.07-.16-.08-5.82-.24-10.9-.29-1.6-.03-3.96-.06-5.43-.04-2.67.02-2.84 0-2.37-.33.28-.19.6-.29.7-.23.1.06.5.03.87-.06.36-.1 1.03-.12 1.47-.05.45.06 1.28.08 1.85.03.67-.06 1.7-.1 2.9-.1 4.98.02 10.8.25 11.23.48.56.3 12.74.48 14.54.21 1.08-.16 1.58-.14 1.92.05.26.15.67.2.96.1.27-.08.86-.13 1.3-.1 1.32.1 4.72.16 13.03.2l16.83.13c7.23.07 26.37-.05 29.5-.19 1.33-.06 2.42.01 2.52.16.13.2 6.25.1 7.34-.12.48-.1.87-.1.87.01 0 .17 5.1.2 11.14.13l.01.22.03.47c.02.32.08.67.16.95h-1.32l-3.7.03-.4-.56c-.5-.7-.78-.7-1.1-.02-.14.29-.45.58-.69.64-.23.06-.43.2-.42.32 0 .13 4.3.19 7.92.16.19.25.16.33-.11.43-.82.33-.88 1.17-.69 9.98.01.51-.03 3.7-.1 7.08-.06 3.56-.02 6.29.1 6.47.3.43 1.3-1.03 1.23-1.78a2.22 2.22 0 0 1 .2-1.03c.19-.38.14-.55-.25-.91-.5-.47-.65-.8-.25-.55.45.28.73-.15.36-.55-.23-.27-.28-.5-.13-.73.36-.6.25-2.32-.15-2.32-.24 0-.35-.24-.35-.81-.01-.8.3-1.1.53-.53.43 1.03.77-1.5.38-2.84-.23-.83-.54.02-.32.89.14.55.12.58-.23.3-.57-.46-.49-1.48.18-2.12l.56-.55-.14-4.24c-.1-2.9-.1-3.2-.3-3.52-.22-.34-.37-.88-.19-1 .07-.05.12-.2.18-.66h1.25c0 .63-.02.25-.02.9-.04 4.4-.12 9.58-.18 11.5-.05 1.91-.06 12.08-.03 22.6.04 10.5.03 19.18-.02 19.27-.19.3-.04 6.63.17 7.32.12.4.11.8 0 .96-.13.14-.19 3.86-.15 8.67l.02 3.67c.02 2.63-.01 4.63-.07 4.98-.08.5-.05 1.22.08 1.59.17.5.13.82-.15 1.31-.48.84-.49 2.68 0 2.86.46.18.44 1-.04 1.28-.65.37-1.26 8.4-1.14 15.02.11 5.77.34 9.67.58 9.97.22.26.18.42-.18.8-.64.65-.76 1.96-.57 6.08.08 1.97.15 3.7.14 3.82-.16 1.9-.06 13.58.11 13.58.4 0 1.22-1.6 1.06-2.07-.08-.25-.04-.52.1-.6.35-.23.27-1.05-.12-1.2-.45-.17-.45-.54 0-.55.45 0 .44-.44-.02-.61-.32-.12-.32-.2 0-.68.51-.82.44-2.13-.13-2.3-.35-.11-.47-.35-.47-.95-.01-.82.3-1.07.54-.44.08.2.25.3.38.22.3-.19.27-2.91-.03-3.37-.17-.25-.23-.06-.23.7 0 .97-.03 1.01-.34.6-.5-.64-.44-1.06.23-1.77.76-.81.84-8.75.1-9.55-.37-.4-.36-.45.02-.74.36-.27.4-.55.28-2.15-.08-1-.04-2.26.1-2.79.19-.77.16-1.04-.13-1.46-.33-.46-.33-.59-.02-1.22.25-.52.34-1.63.36-4.23.03-6.45.05-6.92.3-6.77.28.18.28.07 0-.67-.14-.36-.15-.64-.02-.72.12-.08.2-1.64.17-3.47-.03-1.84 0-3.43.07-3.54.1-.15.26-5.86.31-10.98.04-1.6.06-3.98.05-5.47-.02-2.69 0-2.86.34-2.38.2.28.31.6.25.7-.06.11-.03.5.07.88.1.37.12 1.04.05 1.48a9.05 9.05 0 0 0-.03 1.86c.06.68.1 1.72.1 2.93-.02 5.01-.27 10.88-.52 11.31-.31.56-.5 12.83-.23 14.65.17 1.08.16 1.6-.05 1.93-.16.26-.2.67-.1.96.09.28.13.88.1 1.32-.1 1.33-.17 4.75-.22 13.13l-.14 16.95c-.08 7.28.04 26.56.19 29.72.06 1.33-.02 2.43-.17 2.53-.21.13-.1 6.3.12 7.4.1.48.1.87-.01.87-.2 0-.21 5.55-.13 11.94-.42.03-1.17.08-1.74.1v-.95l-.01-1-.03-3.73.6-.4c.73-.49.73-.78.02-1.1-.31-.14-.61-.45-.68-.7-.06-.23-.22-.43-.34-.42-.15 0-.2 4.66-.17 8.37a2.5 2.5 0 0 0-.97.3c-.3.25-.39.25-.5-.04-.32-.77-1.16-.82-9.9-.64-.51 0-3.68-.03-7.04-.08-3.53-.06-6.24-.03-6.42.09-.42.27 1.02 1.22 1.77 1.15.3-.02.76.06 1.02.19.37.18.55.14.9-.23.47-.48.8-.62.55-.24-.27.43.15.7.55.35.26-.23.5-.27.73-.14.58.34 2.3.24 2.3-.13 0-.23.23-.33.8-.34.79 0 1.09.28.52.5-1.02.4 1.5.73 2.83.37.82-.22-.03-.52-.89-.3-.55.13-.58.1-.3-.22.46-.54 1.47-.47 2.1.16l.55.54 4.21-.14c2.87-.1 4.37-.22 4.7-.42.33-.2.52-.22.64-.05.08.12.88.4 1.88.46 0 .38-.48.57-.47.9-.96 0-1.5-.02-2.5-.03-.87.4-9.51-.1-11.41-.16-1.9-.05-12-.05-22.44-.02-10.43.04-19.04.03-19.13-.01-.3-.17-6.58-.03-7.27.16-.4.12-.8.11-.95 0-.14-.12-3.83-.17-8.6-.13l-3.65.02a75.3 75.3 0 0 1-4.94-.06 4.12 4.12 0 0 0-1.58.07c-.5.16-.81.13-1.3-.14-.83-.46-2.67-.46-2.85 0-.17.43-.99.42-1.26-.04-.37-.61-8.34-1.18-14.91-1.07-5.73.1-9.6.32-9.9.56-.26.2-.42.17-.79-.17-.65-.6-1.95-.73-6.04-.55-1.96.09-3.66.15-3.8.14-1.88-.15-13.48-.05-13.48.11 0 .38 1.6 1.15 2.06 1 .25-.07.52-.03.6.1.23.33 1.04.25 1.19-.12.17-.42.54-.43.54 0 0 .42.44.41.61-.02.12-.3.2-.3.68 0 .81.49 2.1.42 2.28-.12.11-.33.35-.44.94-.45.82 0 1.06.28.43.52-.2.07-.29.23-.2.35.18.28 2.88.26 3.33-.03.25-.15.07-.21-.69-.21-.96 0-1-.03-.6-.33.64-.46 1.06-.4 1.76.22.8.72 8.68.79 9.49.09.4-.34.44-.34.73.02.27.34.55.38 2.13.26 1-.07 2.25-.03 2.77.1.77.18 1.04.15 1.45-.13.46-.3.58-.3 1.21-.02.52.24 1.62.33 4.2.34 6.4.03 6.87.05 6.72.28-.18.27-.07.27.67 0 .35-.13.63-.13.71-.01.08.1 1.63.18 3.45.15 1.82-.02 3.4 0 3.51.07.15.08 5.81.24 10.9.29 1.6.04 3.95.06 5.43.04 2.67-.02 2.84 0 2.36.33-.28.18-.6.29-.7.23-.1-.06-.5-.03-.86.06-.37.1-1.04.12-1.48.05a9.52 9.52 0 0 0-1.85-.03c-.67.06-1.7.1-2.9.1-4.98-.02-10.8-.25-11.23-.48-.56-.3-12.73-.48-14.54-.21-1.08.15-1.58.14-1.92-.05a1.3 1.3 0 0 0-.95-.1c-.28.08-.87.13-1.31.1-1.32-.1-4.72-.16-13.03-.2l-16.83-.13c-7.22-.07-26.36.05-29.5.19-1.33.06-2.42-.01-2.52-.16-.13-.2-6.25-.1-7.34.12-.47.1-.86.09-.87-.01 0-.18-5.9-.01-11.91-.92.02-.2 0-.84 0-.84l1.9-.01 3.7-.03.4.56c.48.7.78.7 1.1.02.13-.29.44-.58.68-.64.24-.06.43-.2.43-.32 0-.14-4.03-.86-7.7-.83 0-.13-.56-.26-.57-.37-.03-.6-.2-.57-.35-.78-.25-.31-.24-.4.04-.51.76-.32.81-1.16.63-9.97 0-.52.03-3.7.09-7.09.06-3.55.02-6.28-.1-6.46-.27-.43-1.2 1.02-1.14 1.77.02.3-.06.77-.19 1.03-.18.38-.14.55.23.92.47.46.62.79.24.54-.43-.27-.69.16-.35.56.23.26.27.5.14.73-.34.59-.24 2.32.13 2.31.23 0 .33.25.33.81.01.8-.28 1.1-.5.53-.4-1.03-.71 1.51-.35 2.85.22.82.5-.03.3-.9-.14-.55-.11-.58.21-.3.54.47.46 1.49-.16 2.12l-.53.55.13 4.25c.1 2.89.23 4.4.42 4.72.2.34.22.53.05.65-.15.1-.27.16-.33 1.54l-1.03.02.04-2.66c.03-4.4.1-9.58.15-11.5.05-1.91.06-12.08.02-22.6s-.03-19.18.02-19.26c.17-.31.02-6.64-.17-7.33-.11-.4-.1-.8 0-.95.12-.15.17-3.86.13-8.67a503.65 503.65 0 0 1-.02-3.67 78.4 78.4 0 0 1 .06-4.99c.08-.5.05-1.22-.07-1.58-.16-.5-.12-.82.14-1.32.45-.83.45-2.68 0-2.86-.43-.18-.41-1 .03-1.27.62-.38 1.18-8.4 1.06-15.03-.1-5.77-.31-9.67-.54-9.96-.21-.26-.18-.43.16-.8.6-.66.72-1.97.54-6.09-.08-1.97-.15-3.69-.14-3.81.15-1.91.05-13.59-.1-13.59-.38 0-1.15 1.6-1 2.08.07.24.03.51-.09.6-.34.22-.26 1.04.11 1.2.42.16.43.54 0 .54-.42 0-.4.45.02.62.3.12.3.19 0 .68-.48.81-.41 2.12.12 2.3.33.1.44.35.45.94 0 .83-.28 1.07-.52.44-.07-.2-.23-.3-.35-.22-.27.2-.25 2.91.03 3.37.16.25.22.07.22-.7 0-.97.02-1.01.32-.6.46.64.4 1.06-.22 1.78-.7.8-.78 8.74-.09 9.55.35.4.34.44-.02.73-.34.27-.37.56-.26 2.15.08 1.01.04 2.27-.08 2.79-.18.77-.16 1.05.11 1.47.31.45.31.58.02 1.22-.23.52-.32 1.63-.33 4.22-.03 6.46-.05 6.92-.28 6.77-.27-.17-.27-.06 0 .68.13.35.14.63.02.72-.11.07-.18 1.63-.16 3.47.03 1.83 0 3.43-.06 3.53-.09.15-.24 5.86-.29 10.98a204.33 204.33 0 0 0-.04 5.47c.02 2.69 0 2.86-.32 2.38-.19-.28-.3-.6-.23-.7.06-.11.03-.5-.07-.87a4.44 4.44 0 0 1-.05-1.5c.07-.44.08-1.28.03-1.85-.05-.68-.09-1.72-.1-2.92.02-5.02.26-10.89.48-11.32zm0 87.94.06-8.07c.05-4.95.01-6.22-.2-6.14-.2.07-.28.97-.3 3.22a603.14 603.14 0 0 1-.1 6.6c-.03 1.03-.06 1.9-.08 4.42l.63-.03zm-.62 1.74c.18.02.4.02.63.02v.91H2.2l-.32.01c0-.57.01-.39.02-.94zm.28 2.24h.34v.47h-.65v-.48h.3zm195.7.06h.84v.48l-.5.05h-.34v-.53zm-1.2-1.4-.02-.93c-.57 0-1.15.03-1.72 0v.9l.32.01.88.01h.55zm-1.74 1.36h1.78v.59l-1.79-.02c.02-.18 0-.34 0-.57zm-.55 0c-3.32-.01-6.46-.09-8.4-.1-4.9-.06-6.16-.02-6.09.2.08.2.96.28 3.2.3 1.7.01 4.66.06 6.56.1.9.02 2.63.05 4.75.07a25.08 25.08 0 0 1-.02-.3v-.27zm3.55-3.48h.75c-.04-4.1-.11-7.15-.19-7.37-.4-1.2-.55-.3-.55 3.37a483.87 483.87 0 0 1-.01 4zm-194.14 4h1.25s-.14-.3-.16-.54a185.8 185.8 0 0 1-1.1-.01c0 .27.01.33 0 .56zm.02-1.82c0-.52 0-.37.02-.95h.65l.36-.01c-.01.57-.02.44-.01.94l-1.02.02zm2.1 1.27.01.56c1.95.08 7.1.04 7.32-.03 1.19-.39.3-.52-3.35-.52l-3.98-.01zM194.77 4.75c.04-.49.08-.23.1-.8l1.1-.02c-.02.53-.02.24-.03.81l-1.17.01zm.13-2.84h1.08v-.58h-1.08v.58zm2.46 2.44V3.94l.67-.01c0 .3 0-.29 0 0l-.01.36v.43H197.33v-.37zm0-2.42.68.01V1.4h-.68v.53zm0 4.51.65-.02c-.02 1.64-.04 1.8-.06 2.54a593.04 593.04 0 0 0-.12 6.6c-.02 2.26-.1 3.16-.32 3.23-.23.08-.27-1.19-.21-6.14.02-1.73.04-3.27.05-6.2zM193.6 1.9a2.84 2.84 0 0 1 0-.57c-3.6-.33-6.2-.03-6.41.04-1.19.39-.43.53 3.21.53h3.2zM1.23 3.33l.01.99c.08-.02.17-.28.26-.32.07-.04.23-.22.45-.24v-.42a449.13 449.13 0 0 1-.72-.01zm.75-1.43-.74-.1v-.44l.74-.1v.64zM3.1 3.48l.02 1.03c.5 0 1.06 0 1.62.02V3.5L3.1 3.48zM4.8 1.91l-1.65-.03v-.62l1.64.01v.64zm.57 0c3.6 0 7.1.03 9.18.05 4.92.05 6.17.01 6.1-.2-.08-.2-.96-.29-3.2-.3a588.1 588.1 0 0 1-6.56-.11 533.18 533.18 0 0 0-5.54-.07l.01.63zm-3.5 4.05-.67.03c.04 3.1.1 5.26.16 5.45.38 1.2.52.3.52-3.38v-2.1zM.27 114.23c.17-.12.2-.04.07.28-.34.9-.39 1.8-.08 1.68.43-.16.58-1 .56-3.1l-.02-1.86-.19 1.28c-.1.7-.28 1.32-.4 1.36a.35.35 0 0 0-.2.3c0 .13.11.16.25.06zM.87 107c.17-.31-.13-1.44-.4-1.44-.14 0-.27.37-.3.81-.04.77.4 1.16.7.63zm-.15-5.4c0-.9-.05-1.17-.2-.92-.23.4-.23.52.01 1.51.15.58.18.49.19-.58zm.42-32.33c0 1.63-.02 4.21-.07 5.75C.85 82.55.8 85.7.94 85.84c.08.08.23.66.33 1.28.19 1.15.25-.09.3-6.54l.1-8.2c.07-5.21.04-6.09-.23-6.08-.25 0-.3.54-.3 2.96zm.38 23.04c.1-.2.1-.92 0-1.63l-.18-1.27v1.63c0 1.04.06 1.5.18 1.27zm.31-29.89c.12-3.87-.18-9.47-.46-8.65-.25.72-.3 11.8-.06 11.96.34.23.43-.37.52-3.3zm.07-26.12c-.01-1.98-.26-2.57-.9-2.14-.25.17-.22 1 .07 1.73.13.32.25.86.28 1.22.14 1.75.57 1.13.56-.8zm-.49 11.76c.46.36.48.88.08 2.1-.44 1.36-.28 2.73.24 2.16.3-.34.5-3.95.3-5.16-.14-.73-.2-2.1-.13-3.03.13-1.84-.04-3.02-.4-2.77-.16.1-.2 1.13-.11 3.01.09 1.95.05 2.94-.12 3.13-.18.2-.14.34.14.56zm.09-35.86c-.11 0-.25.29-.32.64-.33 1.88-.32 2.29.05 2.9.58.96.72.78.7-.87 0-.95-.1-1.51-.25-1.51s-.19-.22-.1-.58c.06-.32.03-.58-.08-.58zm.52 27.8c.2-.87.14-1.1-.3-1.1-.36 0-.44.16-.43.82 0 .93.52 1.13.73.28zm-.2-12.6c-.02-2.78-.43-5.2-.46-2.72-.06 5.22-.03 6.1.23 6.1.2 0 .26-.83.24-3.37zm.03-3.61c.14-.25-.14-4.16-.3-4.16-.31 0-.33 3.43-.03 3.87.15.21.3.34.33.29zm.1-6.07c0-.58-.33-1.06-.56-.81-.26.29-.32 1.75-.07 1.9.34.23.64-.28.64-1.09zm3.77 95.24c-.13-1.33-.1-1.47.16-1.12.22.29.3 1.35.35 5.03.07 3.75-.02 8.5-.2 8.61-.11.08-.21-.01-.21-.2 0-.2-.3-.6-.66-.87l-.65-.51.55-.63c.54-.62.55-.7.52-3.85l.03-1.36v-.02l.03-1.17c-.05-.29-.12-.49-.21-.55-.12-.08-.07-.48.12-.99.24-.62.28-1.26.17-2.37zm.28-3.62c.12-.08.21-.97.2-1.97 0-1.01-.11-1.9-.23-1.98-.14-.09-.21.63-.2 1.98.01 1.35.1 2.07.23 1.97zM5.98 63.3c.05.22.2.4.32.4.13 0 .17-.17.1-.37-.08-.2-.14-.46-.15-.58a.21.21 0 0 0-.21-.2c-.23 0-.23.07-.06.75zm-.55-11.78c-.01 1.63-.16 2.12-.41 1.45-.28-.73-.08-3.2.26-3.2.1 0 .16.79.15 1.75zm-.95 2.3c.08 1.15.04 1.3-.32 1.3-.35 0-.38-.11-.26-1.1.2-1.6.48-1.7.58-.2zm-.37-3.1.31 1.04-.12-1.74c-.18-2.44-.53-3.65-.51-1.74 0 .77.15 1.86.32 2.43zm.23-9.65c0 .57-.2.75-.5.44-.24-.25-.21-4.45.03-4.61.12-.08.21.14.22.54 0 1 .26 2.13.48 2.12.1 0 .18-.51.18-1.14-.01-1.18.28-1.75.51-1 .2.64.28 7.43.1 8.93-.19 1.63-.59 1.53-.52-.14.09-2.39-.08-5.72-.3-5.72-.11 0-.2.27-.2.59zm-.51-5.34c.26-.3.48-3.6.24-3.6-.23 0-.44 1.38-.43 2.79 0 .6.08.94.19.8zm.95-7.65c-.07.3-.32.67-.55.8-.38.23-.43.18-.44-.34 0-.44.1-.58.38-.54.31.06.38-.13.41-1.1l.04-1.15-.29.81c-.42 1.23-.6.47-.5-2.23.06-1.26.1-2.78.1-3.37 0-1 .05-1.08.63-1.18.7-.12 1.12 1.88.73 3.4-.28 1.06-.55.16-.4-1.31.12-1.16.11-1.17-.3-.76-.64.63-.5 3.55.15 3.27.28-.12.35.08.67 2 .11.66.07.9-.18 1-.18.08-.38.39-.45.7zm-.43-12.5c.35.1.42.34.44 1.54.05 2.23.62.59.6-1.76 0-1.83-.18-2.3-.65-1.68-.23.3-.3.3-.51 0-.2-.29-.25-.14-.27.72-.03.88.04 1.1.39 1.19zm-.1-9.09c0 .2-.1.3-.21.22-.12-.08-.22-.24-.22-.36a.22.22 0 0 1 .21-.22c.12 0 .22.16.22.36zm-.05-4.7c.06 0 .1-.06.1-.12 0-.07-.04-.12-.1-.12-.06 0-.1.05-.1.12 0 .06.04.11.1.11zM2.54 166.35c-.12.08-.27.58-.34 1.12-.4 3.34-.12 11.75.38 11.2.25-.26.2-12.5-.04-12.32zm.25-16.87c-.01-2-.21-2.5-.97-2.5-.2 0-.11.74.23 1.86.17.57.28 1.15.23 1.28-.04.14.06.5.22.81.27.52.3.38.29-1.45zm-.22 11.74c.4.3.4.37.07 1.34-.56 1.68-.63 2.42-.27 2.74.43.38.65-.82.61-3.35-.12-7.6-.13-7.82-.4-7.72-.32.12-.38 1.94-.14 4.38.08.9.05 1.69-.07 1.91-.17.29-.12.46.2.7zm.1-35.12c-.2-1.01-.45-.9-.61.27a21.56 21.56 0 0 1-.22 1.34c-.09.37.55 1.62.83 1.61.2 0 .2-2.2 0-3.22zm.09 27.34c.46-.41.36-1.6-.14-1.59-.32 0-.4.17-.4.8 0 .95.15 1.15.54.8zm-.52-13.64c.12.68.2 1.34.15 1.47-.38 1.44-.21 3.26.24 2.47.3-.53.17-6.37-.14-6.47-.21-.08-.26 0-.15.3.08.22.04.54-.08.71-.16.2-.17.68-.02 1.52zm.52-3.05c.16-.18-.16-4.17-.32-4.06-.23.15-.21 3.45.02 3.83.1.19.25.29.3.23zm-.3-4.92c.34-.12.38-1.78.06-1.87-.12-.03-.25.4-.28.96-.04.75.02.99.23.9zm2.77 10.01a.48.48 0 0 0-.41.3c-.06.16-.12-.04-.13-.45-.02-.62.04-.71.41-.61.4.1.43.01.4-1.01-.04-1.05-.05-1.08-.17-.32-.23 1.48-.51.3-.51-2.17v-3.52c0-1.25.82-1.7 1.33-.74.27.5.17 3.3-.12 3.22-.12-.03-.2-.68-.16-1.5.05-1.43.04-1.44-.33-.92-.54.73-.4 3.21.18 3.37.55.15.9 2.68.4 2.98-.18.11-.38.46-.46.78-.07.33-.26.6-.43.6zm0-13.22c.33.18.42.5.43 1.56.02 1.22.05 1.29.33.87.23-.32.31-1.07.3-2.61-.02-1.99-.22-2.69-.53-1.81-.06.19-.22.35-.34.35-.12 0-.23-.16-.23-.35 0-.88-.33-.22-.34.71-.02.81.07 1.1.39 1.28zm.97 15.19c.28-.19.28.12.01.58-.18.3-.2.3-.21-.04 0-.22.09-.46.2-.54zm-.04-1.18c.1.06.14-.14.08-.45-.06-.32-.14-.58-.19-.58-.16 0-.07.9.11 1.03zm-1.13 4.52c-.02.68-.1 1.3-.18 1.38-.08.09-.11-.63-.09-1.58.03-1.03.14-1.7.27-1.66.12.05.18.2.14.35-.05.15-.1.83-.14 1.5zm.3 7c.15.52-.42.69-.62.18-.16-.42-.19-3.21-.04-3.83.24-.98.5-.53.52.86 0 .78.1 1.4.23 1.4.12 0 .21-.45.2-1 0-1.15.27-1.8.55-1.31.5.84.24 10.4-.27 10.07-.11-.08-.14-.24-.07-.37.21-.38-.2-6.47-.44-6.47-.11 0-.14.22-.07.47zm-.31 1.86c.27-.46.26-.76-.01-.58-.12.08-.21.32-.2.54 0 .34.03.34.2.04zm.49 9.17-.31-.93a9.3 9.3 0 0 1-.31-2.32c0-1.64.23-.73.48 1.86l.14 1.39zm.57 1.04.33.8-.11-1.25c-.07-.7-.03-1.38.08-1.53.11-.14.13-.56.03-.93-.22-.87-.46-.46-.57.99-.05.68.04 1.42.24 1.92zm-.7.74c.14 1.4.12 1.47-.38 1.27-.28-.12-.32-.33-.2-1.13.2-1.47.44-1.53.58-.14zm1.75 8.77c.28.9.28 1.37.01.93-.12-.2-.2-.61-.2-.93l.02-.58.17.58zM85.14.25c.12.18.04.2-.27.09-.9-.35-1.78-.4-1.67-.09.16.43 1 .59 3.07.56L88.12.8 86.85.61c-.7-.1-1.3-.28-1.35-.4a.34.34 0 0 0-.3-.21c-.13 0-.15.12-.06.26zm7.19.63c.31.18 1.44-.13 1.43-.4 0-.13-.36-.27-.8-.3-.76-.03-1.16.4-.63.7zm5.36-.15c.9.01 1.16-.05.92-.2-.4-.23-.52-.23-1.5.02-.58.14-.48.17.58.18zm32.1.43c-1.62.01-4.19-.02-5.7-.07-7.5-.23-10.63-.27-10.76-.14-.09.08-.65.23-1.27.33-1.14.2.09.25 6.5.31l8.12.1c5.19.07 6.05.04 6.05-.23 0-.26-.54-.31-2.94-.3zm-22.87.38c.2.1.9.11 1.61 0l1.26-.18h-1.61c-1.04 0-1.49.06-1.26.18zm29.67.32c3.84.12 9.4-.18 8.59-.47-.72-.25-11.73-.3-11.88-.06-.22.35.37.44 3.29.53zm25.93.08c1.97-.02 2.55-.27 2.12-.91-.17-.26-.98-.22-1.71.07a5.08 5.08 0 0 1-1.21.28c-1.74.14-1.13.58.8.56zm-11.68-.5c-.35.47-.87.48-2.09.08-1.34-.44-2.7-.29-2.13.24.33.31 3.92.51 5.12.3.72-.14 2.07-.2 3-.13 1.83.13 3-.04 2.75-.4-.1-.16-1.12-.2-2.98-.11-1.94.08-2.92.05-3.1-.12-.2-.18-.35-.14-.57.14zm35.6.1c0-.12-.29-.26-.63-.32-1.87-.34-2.27-.33-2.89.04-.95.58-.77.72.88.71.94 0 1.5-.1 1.5-.25s.21-.2.57-.11c.32.07.57.04.57-.08zm-27.6.51c.87.21 1.1.15 1.1-.3 0-.36-.16-.44-.82-.44-.92.01-1.12.54-.28.74zm12.5-.19c2.77-.02 5.17-.44 2.71-.47-5.18-.06-6.05-.03-6.05.23 0 .2.83.26 3.35.24zm3.6.02c.25.15 4.13-.14 4.13-.3 0-.31-3.41-.33-3.85-.03-.2.15-.34.3-.28.33zm6.02.11c.58 0 1.06-.34.8-.57-.28-.26-1.73-.32-1.89-.07-.22.35.3.64 1.09.64zM86.42 5.78c1.32-.13 1.46-.11 1.1.15-.28.22-1.33.3-4.98.35-3.73.08-8.44-.02-8.55-.2-.08-.11 0-.21.2-.21s.58-.3.86-.66l.5-.66.63.55c.62.55.7.56 3.83.53l1.35.03h.02l1.15.03c.3-.05.5-.12.55-.21.08-.12.48-.07.98.12.62.24 1.26.29 2.36.18zm3.59.28c.08.12.96.2 1.96.2 1-.01 1.88-.12 1.96-.24.09-.14-.62-.21-1.96-.2-1.35.01-2.05.1-1.96.24zm45.7-.03c-.22.05-.4.2-.4.32 0 .13.16.17.36.1.2-.08.46-.14.58-.14a.22.22 0 0 0 .21-.22c0-.23-.08-.23-.75-.06zm11.7-.55c-1.63-.02-2.12-.16-1.45-.42.72-.28 3.17-.07 3.17.27 0 .1-.77.16-1.72.15zm-2.3-.96c-1.13.08-1.29.04-1.3-.32 0-.36.13-.39 1.1-.26 1.6.2 1.7.48.2.58zm3.09-.37-1.04.31 1.73-.12c2.42-.18 3.63-.54 1.73-.51-.76 0-1.85.15-2.42.32zm9.57.23c-.56 0-.74-.2-.43-.5.25-.24 4.41-.21 4.57.02.09.13-.14.22-.53.23-1 0-2.11.26-2.11.48 0 .1.51.18 1.14.18 1.16-.01 1.74.29 1 .52-.65.2-7.4.27-8.87.1-1.63-.19-1.53-.6.13-.53 2.37.1 5.68-.07 5.68-.3 0-.11-.26-.2-.58-.2zm5.3-.51c.31.25 3.57.48 3.57.24 0-.23-1.36-.45-2.76-.44-.6 0-.93.09-.8.2zm7.6.96a1.4 1.4 0 0 1-.8-.56c-.22-.38-.18-.43.34-.44.44 0 .58.1.53.38-.05.32.14.39 1.1.42l1.14.03-.8-.29c-1.22-.43-.47-.6 2.2-.5 1.26.06 2.77.1 3.36.1 1 0 1.07.05 1.17.63.11.7-1.86 1.14-3.38.74-1.06-.28-.16-.55 1.3-.4 1.15.12 1.17.11.76-.3-.63-.65-3.52-.51-3.25.15.12.28-.07.35-1.98.67-.66.12-.9.07-1-.18-.07-.18-.38-.39-.69-.45zm12.4-.44c-.1.35-.33.42-1.52.45-2.22.05-.58.62 1.74.61 1.82 0 2.29-.19 1.68-.66-.31-.24-.31-.3 0-.52.28-.2.13-.25-.72-.27-.88-.03-1.08.04-1.18.39zm9.03-.1c-.2 0-.3-.1-.22-.21.08-.12.24-.22.36-.22a.22.22 0 0 1 .22.21c0 .12-.16.22-.36.22zM73.35 2.7c1-.2.9-.46-.26-.62a21 21 0 0 1-1.33-.22c-.37-.09-1.61.56-1.6.84 0 .2 2.18.2 3.19 0zM33.4 2.55c-.08-.12-.59-.28-1.12-.34-3.31-.41-11.66-.13-11.12.38.27.25 12.4.2 12.24-.04zm16.75.25c1.97 0 2.48-.2 2.47-.98 0-.2-.73-.1-1.84.23-.57.18-1.14.29-1.28.24-.13-.04-.5.06-.8.22-.5.27-.37.3 1.45.3zm-11.66-.22c-.3.4-.37.4-1.33.07-1.67-.56-2.4-.63-2.72-.27-.38.44.81.66 3.33.62 7.55-.12 7.76-.13 7.66-.41-.12-.32-1.93-.38-4.35-.14-.9.08-1.67.05-1.9-.07-.28-.17-.45-.12-.69.2zm7.72.2c.41.45 1.58.35 1.58-.14 0-.33-.17-.42-.8-.41-.93 0-1.13.15-.78.54zm16.8-.3c-.18.1-.29.24-.23.3.18.16 4.14-.16 4.03-.32-.15-.23-3.42-.22-3.8.01zm-3.26-.22c-.67.12-1.32.19-1.46.15-1.43-.4-3.24-.22-2.45.23.52.3 6.32.18 6.43-.13.07-.22-.02-.27-.3-.16a.82.82 0 0 1-.7-.08c-.22-.16-.69-.16-1.52-.01zm7.92.22c.12.34 1.76.38 1.85.05.03-.12-.4-.24-.95-.27-.75-.05-.98 0-.9.22zm-9.94 2.78a.48.48 0 0 0-.3-.4c-.16-.07.04-.13.44-.14.62-.02.71.04.61.41-.1.4 0 .44 1 .4 1.05-.03 1.07-.05.32-.17-1.47-.23-.3-.5 2.15-.5l3.5-.01c1.24 0 1.7.82.74 1.34-.5.27-3.29.17-3.2-.12.03-.12.68-.2 1.5-.16 1.4.05 1.42.04.9-.34-.73-.54-3.19-.4-3.35.19-.15.55-2.65.9-2.95.4-.11-.18-.46-.39-.78-.46s-.58-.27-.58-.44zm16.38-.04c-.14 0-.25-.1-.25-.22s.04-.22.1-.22c.06 0 .17.1.25.22.08.12.03.21-.1.21zm-3.26.05c-.18.33-.5.42-1.54.43-1.21.02-1.28.04-.87.33.32.23 1.06.31 2.6.3 1.96-.02 2.66-.22 1.79-.53-.2-.07-.35-.22-.35-.35 0-.12.16-.22.35-.22.87-.01.22-.34-.7-.35-.81-.02-1.1.07-1.28.4zm-15.65.98c-.3-.18-.3-.2.04-.21.22 0 .46.09.54.2.18.28-.13.28-.58.01zm-2.74-1.18a4.64 4.64 0 0 1-1.38-.2c-.08-.07.63-.1 1.58-.08 1.02.03 1.69.14 1.64.27-.04.12-.2.18-.34.14-.15-.05-.82-.1-1.5-.13zm4.49 1.13c-.07.1.13.14.45.08.31-.06.56-.14.56-.19 0-.17-.9-.07-1.01.11zM45.5 5.35c-.52.16-.68-.42-.18-.61.41-.16 3.19-.2 3.8-.04.98.24.53.51-.86.52-.76 0-1.38.11-1.38.23 0 .12.45.22.98.21 1.15 0 1.79.26 1.31.55-.83.5-10.32.24-10-.27.08-.12.25-.15.38-.08.37.22 6.41-.2 6.41-.44 0-.11-.2-.14-.46-.06zm-1.8-.52c-.34 0-.35.03-.05.21.46.28.76.27.58 0-.08-.12-.32-.21-.54-.21zm-9.15.7.92-.3a9 9 0 0 1 2.3-.31c1.63 0 .73.23-1.84.48l-1.38.14zm-1.03.59-.8.33 1.25-.12c.68-.06 1.37-.02 1.5.1.16.1.57.11.94.02.86-.23.45-.47-.99-.58a4.47 4.47 0 0 0-1.9.25zm-.74-.7c-1.38.13-1.46.11-1.26-.39.12-.29.33-.33 1.12-.21 1.46.2 1.52.45.14.6zm-8.7 1.76c-.89.27-1.36.28-.93 0a2 2 0 0 1 .92-.2l.58.02-.57.18zm175.56 76.41c-.13.32-.11.4.08.28.15-.1.27-.07.27.05a.35.35 0 0 1-.22.3c-.12.05-.32.66-.42 1.37l-.2 1.28-.02-1.86c-.03-2.1.14-2.94.6-3.1.32-.11.28.78-.1 1.68zm-.17 8.96c-.28 0-.6-1.13-.42-1.44.32-.53.78-.14.74.63-.03.44-.17.81-.32.81zm-.05 4.88c-.16.25-.22-.02-.21-.93 0-1.06.04-1.16.2-.58.25.99.25 1.12 0 1.5zm-.6 25.67a185.8 185.8 0 0 0-.08 5.74c.02 2.42-.04 2.96-.31 2.97-.29 0-.32-.87-.25-6.1l.11-8.18c.07-6.46.13-7.7.33-6.54.11.61.27 1.19.35 1.27.14.13.1 3.3-.15 10.84zm-.48-15.67c-.1-.7-.1-1.43 0-1.63.14-.23.2.23.2 1.27v1.63l-.2-1.27zm.15 36.92c-.3.81-.62-4.79-.5-8.66.1-2.94.2-3.53.57-3.31.26.16.2 11.25-.07 11.97zm.38 19.6c-.69.43-.95-.15-.97-2.14-.01-1.94.44-2.56.6-.8.03.35.16.9.3 1.21.3.74.33 1.56.07 1.73zm-.52-16c-.43 1.23-.4 1.74.08 2.1.3.22.35.37.15.57-.17.18-.21 1.17-.12 3.12.09 1.88.05 2.91-.11 3.01-.4.25-.58-.93-.44-2.77.07-.93.02-2.3-.12-3.03-.24-1.2-.02-4.82.3-5.15.57-.58.73.8.26 2.15zm.3 37.32c-.06.35-.21.64-.33.64-.12 0-.15-.26-.08-.58.09-.35.05-.58-.11-.58s-.26-.55-.27-1.5c-.01-1.66.13-1.84.75-.88.4.62.4 1.03.05 2.9zm-.54-26.06c-.48 0-.55-.23-.32-1.1.21-.85.77-.65.77.28.01.66-.08.82-.45.82zm.37 14.22c-.03 2.48-.48.06-.5-2.73-.02-2.53.04-3.36.26-3.36.27 0 .3.87.24 6.09zm-.2 5.05c-.17 0-.48-3.9-.32-4.16.03-.05.19.08.35.3.32.43.3 3.86-.03 3.86zm.16 2.72c-.24.26-.6-.23-.6-.81 0-.8.31-1.32.68-1.1.26.16.2 1.63-.08 1.91zm-4.73-94.93c.28.36.3.22.16-1.11a4.63 4.63 0 0 1 .2-2.38c.2-.5.25-.91.12-.99-.1-.06-.16-.26-.22-.55 0-.4.02-.79.03-1.18l.03-1.37c-.03-3.14-.02-3.23.56-3.85l.59-.63-.7-.5c-.38-.29-.7-.68-.7-.87 0-.2-.1-.3-.23-.21-.19.12-.29 4.86-.21 8.61.05 3.68.14 4.74.37 5.03zm-.35 4.48c0-1 .09-1.9.21-1.98.15-.1.24.62.25 1.97.01 1.36-.06 2.07-.21 1.98-.13-.08-.24-.97-.25-1.97zm-.12 43.65c.13 0 .29.18.35.4.18.68.17.76-.07.76-.13 0-.23-.1-.23-.2 0-.13-.07-.39-.15-.59-.07-.2-.03-.36.1-.37zm1.37 10.73c-.28-.67-.43-.18-.45 1.46-.01.96.06 1.74.16 1.74.36 0 .58-2.47.29-3.2zm.9-2.15c-.37 0-.41.16-.33 1.3.1 1.5.4 1.4.61-.2.14-.98.1-1.1-.27-1.1zm-.27 3.37.33 1.04c.18.57.33 1.67.34 2.43.02 1.92-.36.7-.54-1.73l-.13-1.74zm.62 10.25c-.32-.32-.54-.14-.54.43 0 .32-.1.58-.22.58-.23 0-.4-3.33-.3-5.72.06-1.67-.37-1.77-.57-.13-.18 1.5-.1 8.29.1 8.93.25.75.57.17.56-1 0-.63.08-1.15.19-1.15.23 0 .5 1.12.5 2.13 0 .4.1.62.24.53.25-.16.29-4.36.04-4.6zm-.26 9.36c-.25 0-.01-3.28.26-3.58.12-.13.2.2.2.8.02 1.41-.21 2.78-.46 2.78zm-1.34.94c-.3.46-.29.77 0 .59.13-.08.23-.33.22-.54 0-.34-.03-.35-.22-.05zm1.17 2.32c-.25.13-.51.5-.59.8-.07.31-.29.63-.48.7-.27.1-.31.35-.2 1 .35 1.93.42 2.12.72 2 .7-.27.85 2.64.16 3.27-.44.41-.44.4-.32-.76.16-1.47-.13-2.37-.42-1.31-.43 1.53.03 3.52.78 3.4.62-.1.66-.17.66-1.18 0-.6.05-2.1.1-3.37.11-2.7-.07-3.45-.52-2.23l-.3.82.03-1.16c.04-.97.11-1.15.45-1.1.3.05.4-.1.4-.53-.01-.53-.07-.57-.47-.35zm-.6 11.76c.02 1.2.1 1.44.47 1.54.37.1.44.3.41 1.19-.02.85-.08 1-.29.72-.23-.31-.3-.31-.54 0-.5.61-.7.14-.7-1.69-.01-2.34.6-3.99.64-1.76zm2.85-150.37c-.07.54-.24 1.05-.37 1.13-.26.17-.3-12.06-.03-12.33.54-.54.83 7.87.4 11.2zm.4 20.5c-.82 0-1.03-.5-1.04-2.5-.01-1.83.02-1.97.3-1.45.18.3.29.67.24.8-.05.14.07.72.25 1.3.36 1.1.46 1.85.24 1.85zm-.88-15.58c-.34.97-.34 1.04.08 1.34.34.24.4.41.21.7-.13.22-.16 1-.07 1.91.25 2.44.18 4.26-.15 4.38-.3.1-.31-.1-.43-7.72-.04-2.53.2-3.73.65-3.35.39.32.3 1.06-.29 2.74zm.6 36.2c-.16 1.16-.44 1.27-.65.26-.21-1.02-.21-3.22 0-3.22.3 0 .98 1.24.89 1.61-.05.2-.16.8-.23 1.34zm-.58-25.49c-.53 0-.64-1.18-.15-1.6.42-.35.57-.14.58.8 0 .63-.09.8-.43.8zm.23 10.58c-.04.14.04.8.16 1.47.16.84.16 1.31-.01 1.52-.14.17-.18.49-.09.71.12.3.07.38-.16.3-.33-.1-.46-5.94-.14-6.47.47-.8.66 1.03.24 2.47zm-.05 8.58c-.18.11-.5-3.88-.34-4.06.06-.06.2.05.33.23.24.38.25 3.68 0 3.83zm-.08 2.73c-.35-.09-.3-1.74.05-1.87.23-.07.29.16.24.91-.03.56-.17.99-.3.96zm-2.45-12.17a.5.5 0 0 1-.44.3c-.18 0-.39.26-.46.58-.08.32-.3.67-.5.78-.52.3-.16 2.83.44 2.98.62.16.76 2.64.19 3.38-.4.51-.4.5-.35-.92.03-.82-.05-1.47-.18-1.51-.3-.09-.41 2.72-.13 3.22.55.97 1.43.51 1.43-.74v-3.52c0-2.47-.3-3.65-.55-2.17-.13.76-.14.73-.18-.31-.03-1.03 0-1.12.43-1.02.39.1.45.01.43-.61-.01-.4-.07-.6-.13-.44zm-.9 11.96c0 1.05.1 1.37.45 1.55.33.18.43.47.41 1.28-.02.93-.36 1.6-.37.71 0-.2-.1-.35-.24-.35-.13 0-.3.16-.37.36-.32.87-.54.17-.56-1.81-.01-1.54.08-2.3.32-2.62.3-.41.33-.34.35.87zm-.59-14.21c-.28.45-.28.76 0 .58.14-.08.24-.33.23-.54 0-.34-.04-.35-.23-.05zm-.03 2.2c-.06-.3-.03-.5.08-.44.2.11.3 1.02.12 1.02-.05 0-.14-.26-.2-.57zm1.49-6.35c-.08.08-.17.7-.2 1.39a11 11 0 0 1-.14 1.5c-.05.15.02.3.15.35.13.05.25-.63.28-1.65.03-.96-.01-1.67-.1-1.6zm.15-5.8c-.2-.5-.82-.34-.65.18.08.26.05.47-.08.47-.25 0-.68-6.09-.46-6.46.08-.13.05-.3-.07-.37-.55-.34-.83 9.22-.3 10.07.3.47.58-.17.58-1.32 0-.55.1-1 .22-1 .13 0 .24.62.25 1.4 0 1.4.3 1.85.55.86.16-.62.13-3.41-.04-3.83zm-.52-9.92-.32-.93.14 1.4c.27 2.58.52 3.49.51 1.85 0-.77-.15-1.8-.33-2.32zm-1.29-2.77.35.8c.22.5.32 1.24.26 1.92-.12 1.45-.37 1.86-.6 1-.1-.38-.1-.8.02-.94.12-.15.16-.83.1-1.52l-.13-1.26zm1.5-1.2c-.52-.2-.55-.13-.4 1.26.15 1.39.4 1.33.63-.14.12-.8.08-1.01-.22-1.13zm-2.27-8.43c-.29-.45-.28.03 0 .92l.2.58.01-.58c.01-.32-.08-.73-.21-.92zm-77.12 178.3c-.12-.18-.04-.2.28-.08.89.35 1.77.4 1.66.08-.16-.43-1-.58-3.07-.56l-1.85.02 1.27.2c.7.1 1.3.27 1.35.39.04.12.18.21.3.2.13 0 .16-.1.06-.25zm-7.19-.63c-.3-.17-1.43.14-1.43.4 0 .14.36.28.8.3.77.04 1.16-.4.63-.7zm-5.35.16c-.9-.01-1.17.04-.92.2.39.22.51.22 1.5-.02.57-.15.48-.17-.58-.18zm-32.1-.43a193.34 193.34 0 0 1 5.7.07c7.48.23 10.62.27 10.76.14.08-.08.65-.23 1.26-.33 1.15-.2-.08-.25-6.5-.31l-8.12-.1c-5.18-.07-6.05-.04-6.05.23 0 .26.54.31 2.94.3zm22.87-.38c-.2-.1-.92-.11-1.62-.01l-1.26.18 1.61.01c1.04 0 1.5-.06 1.27-.18zm-52.21.22c.92 0 1.12-.53.28-.73-.87-.21-1.1-.15-1.1.3.01.36.17.44.82.43zm22.54-.54c-3.85-.12-9.4.18-8.6.46.72.25 11.73.3 11.88.06.22-.34-.37-.43-3.28-.52zm-25.93-.08c-1.97.02-2.56.27-2.13.9.17.26.99.23 1.72-.06a5.1 5.1 0 0 1 1.2-.28c1.74-.15 1.13-.58-.8-.56zm11.67.5c.36-.47.87-.49 2.09-.08 1.34.44 2.7.28 2.13-.25-.33-.3-3.92-.5-5.12-.29-.72.14-2.07.2-3 .13-1.83-.13-3 .04-2.75.4.1.16 1.12.2 2.99.11 1.93-.09 2.92-.05 3.1.12.2.18.34.14.56-.14zm-35.6-.1c0 .12.29.26.64.32 1.86.33 2.26.33 2.88-.05.95-.58.77-.72-.87-.7-.95 0-1.5.1-1.5.25s-.22.2-.57.11c-.32-.07-.58-.04-.58.08zm15.1-.32c-2.77.02-5.17.44-2.7.47 5.17.06 6.04.03 6.04-.23 0-.2-.82-.27-3.34-.24zm-3.6-.03c-.25-.14-4.13.15-4.12.31 0 .31 3.4.33 3.84.02.21-.15.34-.3.29-.33zm-6.02-.1c-.58 0-1.06.34-.8.57.28.26 1.73.31 1.9.07.21-.35-.3-.65-1.1-.64zm94.54-3.79c-1.32.13-1.46.11-1.1-.16.28-.21 1.34-.3 4.99-.34 3.72-.08 8.43.01 8.55.2.08.11-.02.2-.21.21-.2 0-.58.3-.86.66l-.5.66-.63-.55c-.61-.55-.7-.56-3.82-.54-.43 0-.88 0-1.34-.02h-.02a45.33 45.33 0 0 0-1.17-.03c-.3.05-.49.12-.55.21-.07.12-.48.07-.98-.12a4.82 4.82 0 0 0-2.36-.18zm-3.59-.28c-.08-.12-.96-.2-1.96-.2-1 .01-1.88.11-1.95.24-.1.14.61.2 1.96.2 1.34-.01 2.05-.1 1.95-.24zm-46.24-.25a.21.21 0 0 0-.2.22c0 .23.07.23.74.06.22-.05.4-.2.4-.33 0-.12-.16-.16-.36-.09-.2.08-.46.14-.58.14zm-8.66 2.37c-1.6-.2-1.69-.48-.2-.58 1.13-.08 1.29-.04 1.3.32 0 .36-.13.39-1.1.26zm-2.5-1.54c1.63.02 2.12.16 1.45.42-.72.28-3.17.07-3.17-.27 0-.1.78-.16 1.73-.15zm-.79 1.33 1.04-.31-1.73.12c-2.42.18-3.62.53-1.72.51.76 0 1.84-.15 2.41-.32zm-9.57-.23c.56 0 .74.2.43.5-.24.24-4.41.21-4.57-.03-.08-.12.14-.22.53-.22 1 0 2.12-.26 2.11-.48 0-.1-.51-.19-1.14-.18-1.16.01-1.73-.29-1-.52.65-.2 7.4-.28 8.88-.1 1.62.19 1.52.6-.13.53-2.38-.1-5.68.07-5.68.29 0 .12.26.21.58.21zm-5.3.51c-.3-.26-3.57-.48-3.57-.24 0 .23 1.36.45 2.76.44.6 0 .93-.09.8-.2zm-4.5-1.51c.3.18.3.2-.04.21-.22 0-.46-.09-.54-.2-.18-.28.13-.28.58-.01zm-3.1.55c.3.07.67.32.8.56.22.38.18.43-.34.44-.44 0-.58-.1-.53-.38.05-.32-.13-.39-1.09-.42l-1.15-.03.8.28c1.22.43.47.6-2.2.5a137.92 137.92 0 0 0-3.35-.1c-1 0-1.08-.04-1.17-.62-.12-.7 1.86-1.14 3.38-.74 1.05.28.15.55-1.31.4-1.15-.12-1.16-.11-.76.3.63.65 3.53.51 3.25-.15-.12-.28.08-.35 1.98-.67.66-.12.9-.07 1 .18.08.18.39.38.7.45zm-12.4.44c.1-.36.33-.43 1.53-.45 2.21-.05.58-.62-1.75-.61-1.82 0-2.29.19-1.68.66.31.24.31.3 0 .52-.28.2-.13.25.72.27.88.03 1.09-.04 1.18-.39zm-3.3.04c.06 0 .17.1.25.22.08.12.04.22-.1.22-.13 0-.24-.1-.24-.22s.04-.22.1-.22zm-5.73.05c.2 0 .3.1.22.22-.08.12-.24.22-.36.22a.22.22 0 0 1-.22-.21c0-.12.16-.22.36-.23zm158.7 1.75c.08.12.59.27 1.12.34 3.31.41 11.67.13 11.12-.38-.27-.25-12.4-.21-12.24.04zm-16.74-.25c-1.98 0-2.49.2-2.48.98 0 .2.74.1 1.84-.24a3.85 3.85 0 0 1 1.28-.23c.13.04.5-.06.8-.22.51-.27.37-.3-1.44-.3zm11.65.22c.3-.4.37-.4 1.33-.07 1.67.56 2.41.63 2.73.27.37-.44-.82-.66-3.33-.62-7.56.12-7.77.13-7.67.41.12.32 1.93.38 4.35.14a4.7 4.7 0 0 1 1.9.07c.28.17.45.12.7-.2zm-34.86-.11c-1 .2-.9.46.27.62a21.64 21.64 0 0 1 1.32.22c.38.09 1.61-.56 1.61-.84 0-.2-2.19-.2-3.2 0zm27.14-.08c-.41-.46-1.58-.36-1.58.13 0 .33.17.42.8.41.93 0 1.14-.15.78-.54zm-13.54.51a6.64 6.64 0 0 1 1.46-.15c1.43.39 3.24.22 2.45-.23-.52-.3-6.32-.18-6.42.13-.08.22 0 .27.3.16a.82.82 0 0 1 .7.08c.2.16.68.16 1.51.01zm-3.03-.52c-.17-.16-4.14.16-4.03.32.15.24 3.42.22 3.8-.01.19-.11.29-.25.23-.3zm-4.88.3c-.13-.34-1.77-.38-1.85-.05-.03.12.4.24.95.27.74.05.97 0 .9-.22zm-12.18-2.75c.39-.1.43-.07.2.19-.31.36-.37.38-.54.12-.07-.1.08-.25.34-.31zm22.12-.03a.48.48 0 0 0 .29.4c.16.07-.04.12-.44.14-.62.02-.71-.04-.61-.41.1-.4 0-.44-1-.4-1.05.03-1.07.04-.32.16 1.47.24.3.52-2.15.52h-3.51c-1.23 0-1.68-.82-.72-1.34.5-.27 3.28-.17 3.2.11-.04.13-.68.2-1.5.17-1.41-.05-1.42-.04-.91.34.73.54 3.19.4 3.35-.19.15-.56 2.65-.9 2.95-.4.11.18.47.39.78.46.32.07.59.27.59.44zm-13.13-.01c.18-.33.5-.42 1.55-.43 1.2-.02 1.28-.04.86-.33-.32-.23-1.06-.32-2.6-.3-1.96.01-2.66.22-1.79.53.2.07.35.22.35.35 0 .12-.15.22-.34.22-.88.01-.22.33.7.35.8.01 1.1-.08 1.27-.4zm15.08-.98c-.18-.27.12-.27.57 0 .3.18.3.2-.04.21-.21 0-.45-.09-.53-.2zm-1.17.04c.06-.1-.14-.13-.45-.08-.32.06-.57.15-.57.2 0 .16.9.07 1.02-.12zm4.48 1.14c.68.03 1.3.12 1.38.19.08.08-.63.11-1.57.09-1.02-.03-1.7-.14-1.65-.27.04-.12.2-.19.35-.14.14.04.82.1 1.5.13zm6.95-.29c.52-.16.69.42.18.62-.41.16-3.18.19-3.8.04-.98-.24-.53-.51.86-.52.77-.01 1.38-.11 1.38-.23 0-.12-.44-.22-.98-.22-1.15 0-1.79-.26-1.31-.54.84-.5 10.33-.24 10 .27-.08.12-.24.15-.37.07-.37-.2-6.42.2-6.42.45 0 .11.21.14.46.06zm1.85.31c-.45-.27-.76-.27-.58 0 .08.13.32.22.54.22.33 0 .34-.04.04-.22zm9.1-.49-.92.3c-.5.18-1.54.32-2.3.32-1.63 0-.73-.23 1.84-.48l1.38-.14zm1.03-.58.8-.33-1.24.11c-.69.07-1.37.03-1.51-.08-.15-.11-.56-.13-.94-.03-.86.23-.45.46.99.58.68.05 1.4-.05 1.9-.25zm.74.7c1.38-.14 1.46-.11 1.26.39-.11.28-.33.33-1.12.21-1.46-.21-1.51-.45-.14-.6zm8.7-1.76c.9-.27 1.37-.28.93 0a2 2 0 0 1-.92.2l-.58-.02.58-.18z" clip-rule="evenodd"/></svg>